<svg width="80" height="80" viewBox="0 0 80 80" fill="none" xmlns="http://www.w3.org/2000/svg">
<path d="M28.8738 16.131C31.4569 18.3745 35.4953 17.1887 36.4554 13.9048C37.4911 10.3627 42.5089 10.3627 43.5446 13.9048C44.5047 17.1887 48.5431 18.3745 51.1262 16.131C53.9125 13.7111 58.1338 16.4239 57.09 19.9637C56.1223 23.2454 58.8785 26.4262 62.2645 25.9354C65.9168 25.406 68.0013 29.9704 65.2095 32.3839C62.6212 34.6215 63.2202 38.7875 66.334 40.2053C69.6927 41.7345 68.9786 46.7012 65.3251 47.2222C61.938 47.7052 60.1896 51.5338 62.0426 54.4099C64.0414 57.5122 60.7554 61.3044 57.4002 59.7675C54.2896 58.3426 50.7489 60.6181 50.7528 64.0395C50.7571 67.7299 45.9425 69.1436 43.9509 66.0367C42.1044 63.1564 37.8956 63.1564 36.0491 66.0367C34.0575 69.1436 29.2429 67.7299 29.2472 64.0395C29.2511 60.6181 25.7104 58.3426 22.5998 59.7675C19.2446 61.3044 15.9586 57.5122 17.9574 54.4099C19.8104 51.5338 18.062 47.7052 14.6749 47.2222C11.0214 46.7012 10.3073 41.7345 13.666 40.2053C16.7798 38.7875 17.3788 34.6215 14.7905 32.3839C11.9987 29.9704 14.0832 25.406 17.7355 25.9354C21.1215 26.4262 23.8777 23.2454 22.91 19.9637C21.8662 16.4239 26.0875 13.7111 28.8738 16.131Z" fill="#FF8906" stroke="#0F0E17"/>
<path d="M28.8738 16.131C31.4569 18.3745 35.4953 17.1887 36.4554 13.9048C37.4911 10.3627 42.5089 10.3627 43.5446 13.9048C44.5047 17.1887 48.5431 18.3745 51.1262 16.131C53.9125 13.7111 58.1338 16.4239 57.09 19.9637C56.1223 23.2454 58.8785 26.4262 62.2645 25.9354C65.9168 25.406 68.0013 29.9704 65.2095 32.3839C62.6212 34.6215 63.2202 38.7875 66.334 40.2053C69.6927 41.7345 68.9786 46.7012 65.3251 47.2222C61.938 47.7052 60.1896 51.5338 62.0426 54.4099C64.0414 57.5122 60.7554 61.3044 57.4002 59.7675C54.2896 58.3426 50.7489 60.6181 50.7528 64.0395C50.7571 67.7299 45.9425 69.1436 43.9509 66.0367C42.1044 63.1564 37.8956 63.1564 36.0491 66.0367C34.0575 69.1436 29.2429 67.7299 29.2472 64.0395C29.2511 60.6181 25.7104 58.3426 22.5998 59.7675C19.2446 61.3044 15.9586 57.5122 17.9574 54.4099C19.8104 51.5338 18.062 47.7052 14.6749 47.2222C11.0214 46.7012 10.3073 41.7345 13.666 40.2053C16.7798 38.7875 17.3788 34.6215 14.7905 32.3839C11.9987 29.9704 14.0832 25.406 17.7355 25.9354C21.1215 26.4262 23.8777 23.2454 22.91 19.9637C21.8662 16.4239 26.0875 13.7111 28.8738 16.131Z" fill="#E53170" stroke="#0F0E17"/>
<circle cx="40.5" cy="39.5" r="22" fill="#E53170" stroke="#0F0E17"/>
<circle cx="40.5" cy="39.5" r="22" fill="#FF8906" stroke="#0F0E17"/>
<path d="M29 28.2284C29.0375 27.5912 29.2071 27.0272 29.5 26.5C29.7698 26.0144 30.875 25.6812 31.4196 25.6207C32.4124 25.5104 34.5 26.7409 34.5 28" stroke="#0F0E17" stroke-width="2" stroke-linecap="round"/>
<path d="M41 27.6147C41.0375 26.9774 41.2071 26.4134 41.5 25.8862C41.7698 25.4006 42.875 25.0674 43.4196 25.0069C44.4124 24.8966 46.5 26.1272 46.5 27.3862" stroke="#0F0E17" stroke-width="2" stroke-linecap="round"/>
<path d="M33.3008 34.8394C33.8772 37.0267 36.0914 38.5586 38.2548 38.7213C41.0308 38.93 42.5178 36.3206 42.8711 33.938" stroke="#0F0E17" stroke-width="2" stroke-linecap="round"/>
</svg>
